# xmcd
#
# Track frame offsets:
#	150
#	12611
#	32920
#	44047
#	56591
#	72412
#	81596
#	90594
#	100528
#	121069
#	128226
#	144225
#	152364
#	160583
#	165844
#	180144
#	191461
#
# Disc length: 2707 seconds
#
# Revision: 0
# Processed by: cddbd v1.5.1PL0 Copyright (c) Steve Scherf et al.
# Submitted via: dBpowerAMP V4.0
#
DISCID=cf0a9111
DTITLE=Bill Monroe and Doc Watson - Live Duet Recordings 1963 - 1980: Off The Record Volume 2
DYEAR=1900
DGENRE=Bluegrass
TTITLE0=Foggy Mountain Top
TTITLE1=What Would You Give In Exchange For Your Soul?
TTITLE2=Watson's Blues
TTITLE3=Soldier's Joy
TTITLE4=Where Is My Sailor Boy? (What Does The Deep Sea Say?)
TTITLE5=You Won't Be Satisfied That Way
TTITLE6=Kentucky Mandolin
TTITLE7=East Tennessee Blues
TTITLE8=Midnight On The Stormy Deep
TTITLE9=Lonesome Moonlight Waltz
TTITLE10=Banks Of The Ohio
TTITLE11=Fire On The Mountain
TTITLE12=Chicken Reel
TTITLE13=Turkey In The Straw
TTITLE14=Memories Of You
TTITLE15=Have A Feast Here Tonight (Rabbit In A Log)
TTITLE16=Paddy On The Turnpike
EXTD=
EXTT0=
EXTT1=
EXTT2=
EXTT3=
EXTT4=
EXTT5=
EXTT6=
EXTT7=
EXTT8=
EXTT9=
EXTT10=
EXTT11=
EXTT12=
EXTT13=
EXTT14=
EXTT15=
EXTT16=
PLAYORDER=
